<svg preserveAspectRatio="none" id="visual" viewBox="0 0 900 150" width="900" height="150" xmlns="http://www.w3.org/2000/svg" xmlns:xlink="http://www.w3.org/1999/xlink" version="1.1"><rect x="0" y="0" width="900" height="150" fill="#c2bcb4"></rect><path d="M0 30L16.7 30.7C33.3 31.3 66.7 32.7 100 36.7C133.3 40.7 166.7 47.3 200 45.5C233.3 43.7 266.7 33.3 300 29.3C333.3 25.3 366.7 27.7 400 31.2C433.3 34.7 466.7 39.3 500 35.8C533.3 32.3 566.7 20.7 600 15C633.3 9.3 666.7 9.7 700 11.5C733.3 13.3 766.7 16.7 800 20.5C833.3 24.3 866.7 28.7 883.3 30.8L900 33L900 151L883.3 151C866.7 151 833.3 151 800 151C766.7 151 733.3 151 700 151C666.7 151 633.3 151 600 151C566.7 151 533.3 151 500 151C466.7 151 433.3 151 400 151C366.7 151 333.3 151 300 151C266.7 151 233.3 151 200 151C166.7 151 133.3 151 100 151C66.7 151 33.3 151 16.7 151L0 151Z" fill="#c2bcb4"></path><path d="M0 26L16.7 26.5C33.3 27 66.7 28 100 34.5C133.3 41 166.7 53 200 56.7C233.3 60.3 266.7 55.7 300 56.8C333.3 58 366.7 65 400 67.5C433.3 70 466.7 68 500 67C533.3 66 566.7 66 600 60.2C633.3 54.3 666.7 42.7 700 41.5C733.3 40.3 766.7 49.7 800 55.8C833.3 62 866.7 65 883.3 66.5L900 68L900 151L883.3 151C866.7 151 833.3 151 800 151C766.7 151 733.3 151 700 151C666.7 151 633.3 151 600 151C566.7 151 533.3 151 500 151C466.7 151 433.3 151 400 151C366.7 151 333.3 151 300 151C266.7 151 233.3 151 200 151C166.7 151 133.3 151 100 151C66.7 151 33.3 151 16.7 151L0 151Z" fill="#afa197"></path><path d="M0 77L16.7 79.3C33.3 81.7 66.7 86.3 100 83.5C133.3 80.7 166.7 70.3 200 64.8C233.3 59.3 266.7 58.7 300 61.2C333.3 63.7 366.7 69.3 400 73.5C433.3 77.7 466.7 80.3 500 78C533.3 75.7 566.7 68.3 600 68.2C633.3 68 666.7 75 700 74.7C733.3 74.3 766.7 66.7 800 68.3C833.3 70 866.7 81 883.3 86.5L900 92L900 151L883.3 151C866.7 151 833.3 151 800 151C766.7 151 733.3 151 700 151C666.7 151 633.3 151 600 151C566.7 151 533.3 151 500 151C466.7 151 433.3 151 400 151C366.7 151 333.3 151 300 151C266.7 151 233.3 151 200 151C166.7 151 133.3 151 100 151C66.7 151 33.3 151 16.7 151L0 151Z" fill="#9d867e"></path><path d="M0 71L16.7 71.7C33.3 72.3 66.7 73.7 100 79.3C133.3 85 166.7 95 200 97.2C233.3 99.3 266.7 93.7 300 89C333.3 84.3 366.7 80.7 400 84.2C433.3 87.7 466.7 98.3 500 98C533.3 97.7 566.7 86.3 600 83C633.3 79.7 666.7 84.3 700 89.8C733.3 95.3 766.7 101.7 800 101.8C833.3 102 866.7 96 883.3 93L900 90L900 151L883.3 151C866.7 151 833.3 151 800 151C766.7 151 733.3 151 700 151C666.7 151 633.3 151 600 151C566.7 151 533.3 151 500 151C466.7 151 433.3 151 400 151C366.7 151 333.3 151 300 151C266.7 151 233.3 151 200 151C166.7 151 133.3 151 100 151C66.7 151 33.3 151 16.7 151L0 151Z" fill="#8b6c69"></path><path d="M0 108L16.7 105.3C33.3 102.7 66.7 97.3 100 99.2C133.3 101 166.7 110 200 115.8C233.3 121.7 266.7 124.3 300 124.7C333.3 125 366.7 123 400 123C433.3 123 466.7 125 500 119.8C533.3 114.7 566.7 102.3 600 99.3C633.3 96.3 666.7 102.7 700 102.8C733.3 103 766.7 97 800 97.2C833.3 97.3 866.7 103.7 883.3 106.8L900 110L900 151L883.3 151C866.7 151 833.3 151 800 151C766.7 151 733.3 151 700 151C666.7 151 633.3 151 600 151C566.7 151 533.3 151 500 151C466.7 151 433.3 151 400 151C366.7 151 333.3 151 300 151C266.7 151 233.3 151 200 151C166.7 151 133.3 151 100 151C66.7 151 33.3 151 16.7 151L0 151Z" fill="#775358"></path><path d="M0 133L16.7 130C33.3 127 66.7 121 100 117.5C133.3 114 166.7 113 200 117.8C233.3 122.7 266.7 133.3 300 135.7C333.3 138 366.7 132 400 128.3C433.3 124.7 466.7 123.3 500 126.5C533.3 129.7 566.7 137.3 600 136C633.3 134.7 666.7 124.3 700 122.3C733.3 120.3 766.7 126.7 800 130.7C833.3 134.7 866.7 136.3 883.3 137.2L900 138L900 151L883.3 151C866.7 151 833.3 151 800 151C766.7 151 733.3 151 700 151C666.7 151 633.3 151 600 151C566.7 151 533.3 151 500 151C466.7 151 433.3 151 400 151C366.7 151 333.3 151 300 151C266.7 151 233.3 151 200 151C166.7 151 133.3 151 100 151C66.7 151 33.3 151 16.7 151L0 151Z" fill="#613c4b"></path></svg>