<svg id="visual" viewBox="0 0 900 150" width="900" height="150" xmlns="http://www.w3.org/2000/svg" xmlns:xlink="http://www.w3.org/1999/xlink" version="1.1"><rect x="0" y="0" width="900" height="150" fill="#7db0c4"></rect><path d="M0 53L21.5 57.5C43 62 86 71 128.8 76.5C171.7 82 214.3 84 257.2 88.3C300 92.7 343 99.3 385.8 93.7C428.7 88 471.3 70 514.2 63.7C557 57.3 600 62.7 642.8 71.3C685.7 80 728.3 92 771.2 92.3C814 92.7 857 81.3 878.5 75.7L900 70L900 151L878.5 151C857 151 814 151 771.2 151C728.3 151 685.7 151 642.8 151C600 151 557 151 514.2 151C471.3 151 428.7 151 385.8 151C343 151 300 151 257.2 151C214.3 151 171.7 151 128.8 151C86 151 43 151 21.5 151L0 151Z" fill="#613c4b" stroke-linecap="round" stroke-linejoin="miter"></path></svg>