<svg preserveAspectRatio="none" id="visual" viewBox="0 0 900 150" width="900" height="150" xmlns="http://www.w3.org/2000/svg" xmlns:xlink="http://www.w3.org/1999/xlink" version="1.1"><rect x="0" y="0" width="900" height="150" fill="#7db0c4"></rect><path d="M0 95L21.5 90.5C43 86 86 77 128.8 71.5C171.7 66 214.3 64 257.2 59.7C300 55.3 343 48.7 385.8 54.3C428.7 60 471.3 78 514.2 84.3C557 90.7 600 85.3 642.8 76.7C685.7 68 728.3 56 771.2 55.7C814 55.3 857 66.7 878.5 72.3L900 78L900 0L878.5 0C857 0 814 0 771.2 0C728.3 0 685.7 0 642.8 0C600 0 557 0 514.2 0C471.3 0 428.7 0 385.8 0C343 0 300 0 257.2 0C214.3 0 171.7 0 128.8 0C86 0 43 0 21.5 0L0 0Z" fill="#613c4b" stroke-linecap="round" stroke-linejoin="miter"></path></svg>